<?xml version="1.0" encoding="utf-8"?>
<!-- Generator: Adobe Illustrator 23.0.1, SVG Export Plug-In . SVG Version: 6.00 Build 0)  -->
<svg version="1.1" id="_50Best_WorldTM_Logo" xmlns="http://www.w3.org/2000/svg" xmlns:xlink="http://www.w3.org/1999/xlink"
	 x="0px" y="0px" viewBox="0 0 48.3 50.1" style="enable-background:new 0 0 48.3 50.1;" xml:space="preserve">
<style type="text/css">
	.st0{fill:#FFFFFF;}
</style>
<path id="Path_1" class="st0" d="M22.7,0.8c-1,5.2-4.8,7.6-11.9,7.6C9,8.4,7.2,8.3,5.4,8.1C5,9.5,5,9.5,4.5,11.9s-0.7,3-1.3,5.2
	c0.9-1.2,2-2.1,3.4-2.7c1.9-0.8,3.9-1.3,5.9-1.3C19.4,13.2,25,18,25,24c0,7.1-5.7,12.1-13.9,12.1C4.5,36.1,0,32.5,0,27.4
	c0-3.2,2.1-5.7,5-5.7c2.6,0,4.7,2,4.8,4.6c0,0.1,0,0.1,0,0.2C9.8,28.9,8,31,5.6,31.1c-0.1,0-0.2,0-0.2,0c-1.3,0-2.6-0.5-3.5-1.4
	c0.3,3.6,3.4,5.8,8,5.8c2.3,0,3.4-0.5,4.2-2.1c0.9-1.6,1.4-4.5,1.4-8.3c0-4.1-0.4-6.3-1.4-8.3c-1-1.6-2.7-2.5-4.5-2.4
	c-2.9,0-4.9,1.5-6.8,4.8H2.3C3.7,14.2,4.7,9.1,5.4,4C5.5,3.3,5.8,2.2,6,0.6c3.1,0.6,6.2,0.9,9.3,0.8c2.4,0.1,4.8-0.2,7.2-0.8
	L22.7,0.8z"/>
<path id="Path_2" class="st0" d="M43.8,4.1c2.8,3,4.5,8.2,4.5,13.7c0,10.1-5.8,18.5-12.7,18.5c-2.9,0-5.7-1.1-7.8-3.2
	c-3.5-3.4-5.3-8.7-5.3-14.9c0-5,1-9,3-12.1C28,2.3,31.7,0,35.4,0C38.7,0.2,41.7,1.7,43.8,4.1 M31.8,3.1C31.3,4.6,31,8.2,31,13.9
	c0,9.7,0.4,17.2,1.1,19.1c0.6,1.8,1.6,2.6,3.1,2.6c1.4,0,2.7-0.9,3.1-2.3c0.7-1.7,1.1-6.6,1.1-14.8c0-6.8-0.3-12.7-0.8-14.7
	C38,1.7,36.7,0.4,35,0.4C33.6,0.4,32.5,1.4,31.8,3.1"/>
<path id="Path_13" class="st0" d="M7.8,37.3c1.3-0.1,2.5,0.1,3.6,0.7c1.2,0.6,1.7,2,1.2,3.2c-0.1,0.3-0.3,0.5-0.5,0.7
	c-0.7,0.5-1.4,0.9-2.3,1c1,0.1,1.9,0.4,2.8,1c0.8,0.6,1.2,1.5,1.2,2.5c0,1.1-0.6,2.1-1.5,2.6c-0.9,0.5-1.7,0.6-4.1,0.6H1.3v-0.3h0.8
	c0.5,0.1,0.9-0.3,0.9-0.7c0,0,0,0,0,0V38.2c0-0.4-0.2-0.6-1.1-0.6H1.5l0-0.3L7.8,37.3L7.8,37.3z M6.7,42.9h1.5c0.7,0,1-0.7,1-2.4
	c0.1-0.9-0.1-1.8-0.6-2.6c-0.2-0.2-0.4-0.2-1.1-0.2H6.7L6.7,42.9L6.7,42.9z M6.7,48.6c0,0.6,0.2,0.8,0.7,0.8h1
	c0.8,0,1.2-0.8,1.2-2.4c0.1-1.1,0-2.2-0.4-3.2c-0.3-0.5-0.7-0.8-1.3-0.8H6.7V48.6z"/>
<path id="Path_14" class="st0" d="M23.5,42h-0.2c0.1-1-0.3-1.9-0.9-2.7c-0.8-1.1-2.1-1.8-3.5-1.7h-0.6v5.3h0.3
	c0.8-0.1,1.5-0.5,1.9-1.2c0.4-0.5,0.6-1.1,0.6-1.7v-0.2h0.2v6.6h-0.2v-0.2c0-0.7-0.2-1.3-0.6-1.9c-0.4-0.6-1.1-1.1-1.9-1.2h-0.4v5.7
	c0,0.4,0.3,0.6,1.1,0.6c1.1,0.1,2.2-0.4,2.8-1.3c0.6-0.8,1-1.6,1.4-2.5c0.2-0.5,0.3-1.1,0.3-1.7h0.2v5.7H12.8v-0.3h0.6
	c1,0,1.4-0.3,1.4-1.1v-10c0-0.5-0.4-0.8-1.5-0.8h-0.5v-0.3h10.7V42z"/>
<path id="Path_15" class="st0" d="M25,44.1c0.1,1,0.5,2,1.2,2.8c1.2,2,2.3,2.9,3.6,2.9c0.8,0,1.2-0.1,1.6-0.6c0.4-0.4,0.5-1,0.5-1.6
	c0-0.6-0.2-1.1-0.7-1.5c-0.5-0.5-0.5-0.5-3.7-1.5c-1.6-0.4-2.7-1.8-2.7-3.4c0-2.2,2.2-4,4.7-4c0.7,0,1.4,0.2,2.1,0.4
	c0.4,0.1,0.7,0.2,1.1,0.2c0.4,0.1,0.9-0.3,0.9-0.7h0.2v4.8h-0.2c-0.1-1-0.5-2-1.1-2.9c-0.6-1-1.7-1.6-2.8-1.6c-0.5,0-1,0.2-1.3,0.6
	c-0.3,0.4-0.5,0.9-0.5,1.4c0,0.6,0.3,1.1,0.8,1.4c0.2,0.2,0.5,0.3,0.8,0.4l2.4,0.7c2,0.6,3.1,1.9,3.1,3.7c0,1.2-0.5,2.4-1.4,3.1
	c-1,0.8-2.2,1.3-3.5,1.3c-0.9,0-1,0-3.6-0.8c-0.2-0.1-0.4-0.1-0.6-0.1c-0.4-0.1-0.8,0.2-0.8,0.6h-0.2v-5.6L25,44.1L25,44.1z"/>
<path id="Path_16" class="st0" d="M34.8,37.4h11.7v5.2h-0.2c0-1-0.3-2-0.9-2.8c-0.6-1-1.5-1.7-2.5-2.1h-0.4v10.9
	c0,0.6,0.4,0.9,1.1,0.9h0.6v0.3h-7.4v-0.3h0.6c0.8,0,1.2-0.4,1.2-1.1V37.7h-0.4c-0.6,0.2-1.1,0.5-1.6,0.9c-0.6,0.6-1.1,1.3-1.5,2.2
	c-0.2,0.5-0.3,1-0.3,1.6v0.3h-0.2L34.8,37.4L34.8,37.4z"/>
</svg>
